<?xml version="1.0" encoding="utf-8"?>
<!-- Generator: Adobe Illustrator 24.1.2, SVG Export Plug-In . SVG Version: 6.00 Build 0)  -->
<svg version="1.1" xmlns="http://www.w3.org/2000/svg" xmlns:xlink="http://www.w3.org/1999/xlink" x="0px" y="0px"
	 viewBox="0 0 896 896" style="enable-background:new 0 0 896 896;" xml:space="preserve">
<style type="text/css">
	.st0{display:none;}
	.st1{display:inline;fill:#012169;}
	.st2{display:inline;stroke:#FFFFFF;stroke-width:120;stroke-miterlimit:80;}
	.st3{display:inline;}
	.st4{clip-path:url(#SVGID_2_);stroke:#C8102E;stroke-width:80;stroke-miterlimit:80;}
	.st5{display:inline;fill:#C8102E;stroke:#FFFFFF;stroke-width:40;stroke-miterlimit:80;}
	.st6{clip-path:url(#SVGID_4_);stroke:#C8102E;stroke-width:80;stroke-miterlimit:80;}
	.st7{clip-path:url(#SVGID_6_);stroke:#C8102E;stroke-width:80;stroke-miterlimit:80;}
	.st8{display:inline;fill:none;stroke:#000000;stroke-miterlimit:10;}
	.st9{fill:none;stroke:#012169;stroke-width:40;stroke-miterlimit:10;}
	.st10{fill:#012169;}
	.st11{fill:none;stroke:#000000;stroke-miterlimit:10;}
	.st12{fill:none;stroke:#000000;stroke-width:10;stroke-miterlimit:10;}
	.st13{fill:none;stroke:#FFFFFF;stroke-width:200;stroke-miterlimit:10;}
	.st14{fill:#FFFFFF;}
	.st15{fill:none;stroke:#FFFFFF;stroke-width:120;stroke-miterlimit:80;}
	.st16{clip-path:url(#SVGID_8_);stroke:#C8102E;stroke-width:80;stroke-miterlimit:80;}
	.st17{fill:#C8102E;stroke:#FFFFFF;stroke-width:40;stroke-miterlimit:80;}
	.st18{fill:#012169;stroke:#012169;stroke-width:40;stroke-miterlimit:10;}
	.st19{clip-path:url(#SVGID_10_);stroke:#C8102E;stroke-width:80;stroke-miterlimit:80;}
	.st20{display:inline;fill:none;stroke:#FFFFFF;stroke-width:120;stroke-miterlimit:80;}
	.st21{fill:none;stroke:#C8102E;stroke-width:80;stroke-miterlimit:80;}
	.st22{fill:#C8102E;stroke:#C8102E;stroke-width:80;stroke-miterlimit:80;}
	.st23{fill:#C8102E;}
	.st24{fill:none;stroke:#FFFFFF;stroke-width:50;stroke-miterlimit:10;}
	.st25{fill:none;stroke:#000000;stroke-width:20;stroke-miterlimit:10;}
</style>
<g id="Слой_1" class="st0">
	<path class="st1" d="M-52,120v600H948V120H-52z"/>
	<path class="st2" d="M-52,120L948,720 M948,120L-52,720"/>
	<g class="st3">
		<defs>
			<polygon id="SVGID_1_" points="448,420 948,420 948,720 448,720 -52,720 -52,420 -52,120 448,120 948,120 			"/>
		</defs>
		<clipPath id="SVGID_2_">
			<use xlink:href="#SVGID_1_"  style="overflow:visible;"/>
		</clipPath>
		<path class="st4" d="M-52,120L948,720 M948,120L-52,720"/>
	</g>
	<path class="st5" d="M-72,340h440V100h160v240h440v160H528v240H368V500H-72V340z"/>
</g>
<g id="Слой_1__x28_копия_x29_" class="st0">
	<path class="st1" d="M-52,120v600H948V120H-52z"/>
	<path class="st2" d="M-52,120L948,720 M948,120L-52,720"/>
	<g class="st3">
		<defs>
			<polygon id="SVGID_3_" points="448,420 948,420 948,720 448,720 -52,720 -52,420 -52,120 448,120 948,120 			"/>
		</defs>
		<clipPath id="SVGID_4_">
			<use xlink:href="#SVGID_3_"  style="overflow:visible;"/>
		</clipPath>
		<path class="st6" d="M-52,120L948,720 M948,120L-52,720"/>
	</g>
	<path class="st5" d="M-72,340h440V100h160v240h440v160H528v240H368V500H-72V340z"/>
</g>
<g id="Слой_1__x28_копия2_x29_" class="st0">
	<path class="st1" d="M-52,120v600H948V120H-52z"/>
	<path class="st2" d="M-52,120L948,720 M948,120L-52,720"/>
	<g class="st3">
		<defs>
			<polygon id="SVGID_5_" points="448,420 948,420 948,720 448,720 -52,720 -52,420 -52,120 448,120 948,120 			"/>
		</defs>
		<clipPath id="SVGID_6_">
			<use xlink:href="#SVGID_5_"  style="overflow:visible;"/>
		</clipPath>
		<path class="st7" d="M-52,120L948,720 M948,120L-52,720"/>
	</g>
	<path class="st5" d="M-72,340h440V100h160v240h440v160H528v378.51H368V500H-72V340z"/>
</g>
<g id="Слой_5__x28_копия3_x29_" class="st0">
	<path class="st8" d="M680,170.68"/>
	<path class="st8" d="M373.06,170.68"/>
	<g class="st3">
		<g>
			<path class="st9" d="M448.09,881.3"/>
			<path class="st9" d="M589.17,1022.39"/>
			<g>
				<path class="st10" d="M273.28,126.67c55.3,0,107.28,21.53,146.38,60.63l0.45,0.45l28.23,28.23l28.28-28.18
					c39.07-38.93,90.95-60.37,146.1-60.37h0c55.29,0,107.27,21.53,146.37,60.63c39.1,39.1,60.63,91.09,60.63,146.38
					S808.2,441.73,769.13,480.8L448.1,801.24L126.9,480.04c-39.1-39.1-60.63-91.08-60.63-146.37S87.8,226.4,126.9,187.3
					C166,148.2,217.98,126.67,273.28,126.67 M273.28,86.67c-63.22,0-126.43,24.12-174.67,72.35c-96.46,96.46-96.46,252.84,0,349.31
					l349.46,349.46l349.31-348.68c96.46-96.46,96.46-252.87,0-349.33c-48.23-48.23-111.44-72.35-174.65-72.35
					c-63.07,0-126.15,24.01-174.34,72.03l-0.45-0.45C399.72,110.78,336.5,86.67,273.28,86.67L273.28,86.67z"/>
			</g>
		</g>
	</g>
</g>
<g id="Слой_5" class="st0">
	<path class="st8" d="M680,170.23"/>
	<path class="st8" d="M373.06,170.23"/>
	<g class="st3">
		<g>
			<line class="st11" x1="506.18" y1="303.29" x2="506.06" y2="303.17"/>
			<path class="st11" d="M559.75,356.86"/>
			<path class="st11" d="M638.99,170.48L506.06,303.17L373.07,170.18c-36.71-36.71-36.71-96.22,0-132.93
				c36.71-36.71,96.23-36.71,132.94,0l0.17,0.17c36.72-36.59,96.14-36.55,132.81,0.12C675.7,74.25,675.7,133.77,638.99,170.48z"/>
		</g>
	</g>
</g>
<g id="Слой_5__x28_копия_x29_" class="st0">
	<path class="st8" d="M680,173.02"/>
	<path class="st8" d="M373.06,173.02"/>
	<g class="st3">
		<g>
			<path class="st12" d="M448.09,881.3"/>
			<path class="st12" d="M589.17,1022.39"/>
			<g>
				<path d="M273.28,96.67c30.79,0,60.8,5.84,89.19,17.35c29.39,11.92,55.77,29.44,78.4,52.07l0.45,0.45l7.06,7.06l7.07-7.05
					c22.61-22.53,48.95-39.97,78.28-51.84c28.34-11.47,58.28-17.28,89-17.28h0c30.78,0,60.79,5.84,89.18,17.36
					c29.39,11.92,55.77,29.44,78.4,52.06c22.63,22.63,40.15,49.01,52.07,78.4c11.52,28.4,17.35,58.41,17.35,89.19
					c0,30.79-5.84,60.8-17.35,89.19c-11.92,29.39-29.44,55.77-52.06,78.39L448.09,843.65l-342.4-342.4
					c-22.63-22.63-40.15-49-52.07-78.4c-11.52-28.39-17.35-58.4-17.35-89.19c0-30.78,5.84-60.79,17.35-89.19
					c11.92-29.39,29.44-55.77,52.07-78.4c22.63-22.63,49.01-40.15,78.4-52.07C212.48,102.51,242.49,96.67,273.28,96.67
					 M273.28,86.67c-63.22,0-126.43,24.12-174.67,72.35c-96.46,96.46-96.46,252.84,0,349.31l349.46,349.46l349.31-348.68
					c96.46-96.46,96.46-252.87,0-349.33c-48.23-48.23-111.44-72.35-174.65-72.35c-63.07,0-126.15,24.01-174.34,72.03l-0.45-0.45
					C399.72,110.78,336.5,86.67,273.28,86.67L273.28,86.67z"/>
			</g>
		</g>
	</g>
</g>
<g id="Слой_5__x28_копия2_x29_" class="st0">
	<path class="st8" d="M680,173.02"/>
	<path class="st8" d="M373.06,173.02"/>
	<g class="st3">
		<g>
			<path class="st13" d="M448.09,881.3"/>
			<path class="st13" d="M589.17,1022.39"/>
			<g>
				<path class="st14" d="M273.28,86.67c63.22,0,126.43,24.12,174.67,72.35l0.45,0.45c48.19-48.02,111.27-72.03,174.34-72.03
					c63.21,0,126.42,24.12,174.65,72.35c96.47,96.46,96.47,252.87,0,349.33L448.08,857.79L98.61,508.32
					c-96.47-96.46-96.47-252.84,0-349.31C146.85,110.78,210.06,86.67,273.28,86.67 M273.28-113.33
					c-57.97,0-114.53,11.02-168.11,32.75C49.59-58.05-0.2-25.02-42.81,17.59c-42.61,42.61-75.64,92.39-98.18,147.97
					c-21.73,53.58-32.75,110.14-32.75,168.11s11.02,114.52,32.75,168.11c22.54,55.58,55.57,105.36,98.18,147.97l349.46,349.46
					l141.29,141.29l141.42-141.17l349.31-348.68l0.06-0.06l0.06-0.06c42.61-42.61,75.64-92.4,98.18-147.98
					c21.73-53.58,32.75-110.14,32.75-168.11c0-57.97-11.02-114.53-32.75-168.11c-22.54-55.58-55.57-105.37-98.18-147.98
					c-42.61-42.61-92.39-75.64-147.97-98.18c-53.58-21.73-110.14-32.75-168.11-32.75c-57.84,0-114.28,10.97-167.76,32.61
					c-2.03,0.82-4.05,1.66-6.07,2.51c-2.49-1.06-5-2.11-7.52-3.13C387.81-102.32,331.25-113.33,273.28-113.33L273.28-113.33z"/>
			</g>
		</g>
	</g>
</g>
<g id="Слой_1__x28_копия3_x29_" class="st0">
</g>
<g id="Слой_5__x28_копия4_x29_" class="st0">
	<g class="st3">
		<path class="st10" d="M-52,120v600H948V120H-52z"/>
		<path class="st15" d="M-52,120L948,720 M948,120L-52,720"/>
		<g>
			<defs>
				<polygon id="SVGID_7_" points="448,420 948,420 948,720 448,720 -52,720 -52,420 -52,120 448,120 948,120 				"/>
			</defs>
			<clipPath id="SVGID_8_">
				<use xlink:href="#SVGID_7_"  style="overflow:visible;"/>
			</clipPath>
			<path class="st16" d="M-52,120L948,720 M948,120L-52,720"/>
		</g>
		<path class="st17" d="M-72,340h440V100h160v240h440v160H528v378.51H368V500H-72V340z"/>
		<path class="st11" d="M680,170.68"/>
		<path class="st11" d="M373.06,170.68"/>
		<g>
			<g>
				<path class="st9" d="M448.09,881.3"/>
				<path class="st9" d="M589.17,1022.39"/>
				<g>
					<path class="st10" d="M273.28,126.67c55.3,0,107.28,21.53,146.38,60.63l0.45,0.45l28.23,28.23l28.28-28.18
						c39.07-38.93,90.95-60.37,146.1-60.37h0c55.29,0,107.27,21.53,146.37,60.63c39.1,39.1,60.63,91.09,60.63,146.38
						S808.2,441.73,769.13,480.8L448.1,801.24L126.9,480.04c-39.1-39.1-60.63-91.08-60.63-146.37S87.8,226.4,126.9,187.3
						C166,148.2,217.98,126.67,273.28,126.67 M273.28,86.67c-63.22,0-126.43,24.12-174.67,72.35c-96.46,96.46-96.46,252.84,0,349.31
						l349.46,349.46l349.31-348.68c96.46-96.46,96.46-252.87,0-349.33c-48.23-48.23-111.44-72.35-174.65-72.35
						c-63.07,0-126.15,24.01-174.34,72.03l-0.45-0.45C399.72,110.78,336.5,86.67,273.28,86.67L273.28,86.67z"/>
				</g>
			</g>
		</g>
	</g>
</g>
<g id="Слой_5__x28_копия6_x29_">
	<path class="st11" d="M680,170.68"/>
	<path class="st11" d="M373.06,170.68"/>
	<g>
		<g>
			<path class="st18" d="M448.09,881.3"/>
			<path class="st18" d="M589.17,1022.39"/>
			<g>
				<path class="st10" d="M112.76,494.18C69.88,451.3,46.27,394.3,46.27,333.67c0-60.63,23.61-117.63,66.49-160.51
					c42.88-42.88,99.89-66.49,160.52-66.49s117.65,23.61,160.52,66.49l14.56,14.57l14.14-14.09c42.84-42.69,99.74-66.2,160.22-66.2
					c60.63,0,117.63,23.61,160.51,66.49c42.88,42.88,66.49,99.89,66.49,160.52s-23.61,117.65-66.49,160.52L448.09,829.52
					L112.76,494.18z"/>
				<path class="st10" d="M273.28,126.67c55.3,0,107.28,21.53,146.38,60.63l0.45,0.45l28.23,28.23l28.28-28.18
					c39.07-38.93,90.95-60.37,146.1-60.37h0c55.29,0,107.27,21.53,146.37,60.63c39.1,39.1,60.63,91.09,60.63,146.38
					S808.2,441.73,769.13,480.8L448.1,801.24L126.9,480.04c-39.1-39.1-60.63-91.08-60.63-146.37S87.8,226.4,126.9,187.3
					C166,148.2,217.98,126.67,273.28,126.67 M273.28,86.67c-63.22,0-126.43,24.12-174.67,72.35c-96.46,96.46-96.46,252.84,0,349.31
					l349.46,349.46l349.31-348.68c96.46-96.46,96.46-252.87,0-349.33c-48.23-48.23-111.44-72.35-174.65-72.35
					c-63.07,0-126.15,24.01-174.34,72.03l-0.45-0.45C399.72,110.78,336.5,86.67,273.28,86.67L273.28,86.67z"/>
			</g>
		</g>
	</g>
</g>
<g id="Слой_1__x28_копия4_x29_" class="st0">
	<path class="st2" d="M80.63,199.58l734.75,440.85 M815.37,199.58L80.63,640.42"/>
	<g class="st3">
		<defs>
			<polygon id="SVGID_9_" points="448,420 815.37,420 815.37,640.42 448,640.42 80.63,640.42 80.63,420 80.63,199.58 448,199.58 
				815.37,199.58 			"/>
		</defs>
		<clipPath id="SVGID_10_">
			<use xlink:href="#SVGID_9_"  style="overflow:visible;"/>
		</clipPath>
		<path class="st19" d="M80.63,199.58l734.75,440.85 M815.37,199.58L80.63,640.42"/>
	</g>
	<path class="st5" d="M64.33,340H368V125.67l80.09,60.67L528,127.67V340h303.67l-93.33,160H528v270.33L450.3,837L368,767V500H135.67
		L64.33,340z"/>
	<line class="st20" x1="80.63" y1="199.58" x2="708.59" y2="576.35"/>
</g>
<g id="Слой_13">
	<line class="st15" x1="80.63" y1="199.58" x2="708.59" y2="576.35"/>
</g>
<g id="Слой_13__x28_копия_x29_">
	<line class="st15" x1="815.37" y1="199.58" x2="187.41" y2="576.35"/>
</g>
<g id="Слой_13_копия_2">
	<line class="st21" x1="80.63" y1="199.58" x2="708.59" y2="576.35"/>
</g>
<g id="Слой_13__x28_копия2_x29_">
	<line class="st22" x1="815.37" y1="199.58" x2="187.41" y2="576.35"/>
</g>
<g id="Слой_14">
	<polygon class="st14" points="548,723 448,832.46 348,723 348,117 448,177.67 548,117 	"/>
</g>
<g id="Слой_14__x28_копия_x29_">
	<polygon class="st14" points="133,520 58.71,427.67 37.67,320 853.67,320 838.49,420 765.67,520 	"/>
</g>
<g id="Слой_14_копия_2">
	<polygon class="st23" points="508,774.33 448,832.46 388,772.33 388,130.33 448,177.67 508,135 	"/>
</g>
<g id="Слой_14__x28_копия2_x29_">
	<polygon class="st23" points="97.67,480 61.05,424.6 40,360 856,360 840.83,420 801,480 	"/>
</g>
<g id="Слой_5__x28_копия5_x29_" class="st0">
	<path class="st8" d="M680,170.68"/>
	<path class="st8" d="M373.06,170.68"/>
	<g class="st3">
		<g>
			<path class="st9" d="M448.09,881.3"/>
			<path class="st9" d="M589.17,1022.39"/>
			<g>
				<path class="st10" d="M273.28,126.67c55.3,0,107.28,21.53,146.38,60.63l0.45,0.45l28.23,28.23l28.28-28.18
					c39.07-38.93,90.95-60.37,146.1-60.37h0c55.29,0,107.27,21.53,146.37,60.63c39.1,39.1,60.63,91.09,60.63,146.38
					S808.2,441.73,769.13,480.8L448.1,801.24L126.9,480.04c-39.1-39.1-60.63-91.08-60.63-146.37S87.8,226.4,126.9,187.3
					C166,148.2,217.98,126.67,273.28,126.67 M273.28,86.67c-63.22,0-126.43,24.12-174.67,72.35c-96.46,96.46-96.46,252.84,0,349.31
					l349.46,349.46l349.31-348.68c96.46-96.46,96.46-252.87,0-349.33c-48.23-48.23-111.44-72.35-174.65-72.35
					c-63.07,0-126.15,24.01-174.34,72.03l-0.45-0.45C399.72,110.78,336.5,86.67,273.28,86.67L273.28,86.67z"/>
			</g>
		</g>
	</g>
</g>
<g id="Слой_5__x28_копия7_x29_">
	<path class="st11" d="M680,170.68"/>
	<path class="st11" d="M373.06,170.68"/>
	<g>
		<g>
			<path class="st24" d="M448.09,881.3"/>
			<path class="st24" d="M589.17,1022.39"/>
			<g>
				<path class="st14" d="M273.28,136.67c52.63,0,102.1,20.49,139.31,57.7l0.45,0.45l35.29,35.29l35.36-35.23
					c37.18-37.05,86.56-57.45,139.05-57.45c52.62,0,102.09,20.49,139.3,57.7c37.21,37.21,57.7,86.69,57.7,139.31
					s-20.49,102.1-57.67,139.28L448.11,787.11L133.97,472.97c-37.21-37.21-57.7-86.68-57.7-139.3s20.49-102.09,57.7-139.3
					C171.18,157.16,220.66,136.67,273.28,136.67 M273.28,86.67c-63.22,0-126.43,24.12-174.67,72.35
					c-96.46,96.46-96.46,252.84,0,349.31l349.46,349.46l349.31-348.68c96.46-96.46,96.46-252.87,0-349.33
					c-48.23-48.23-111.44-72.35-174.65-72.35c-63.07,0-126.15,24.01-174.34,72.03l-0.45-0.45
					C399.71,110.78,336.5,86.67,273.28,86.67L273.28,86.67z"/>
			</g>
		</g>
	</g>
</g>
<g id="Слой_5__x28_копия8_x29_">
	<path class="st11" d="M680,170.68"/>
	<path class="st11" d="M373.06,170.68"/>
	<g>
		<g>
			<path class="st25" d="M448.09,881.3"/>
			<path class="st25" d="M589.17,1022.39"/>
			<g>
				<path d="M273.28,106.67c29.49,0,58.24,5.59,85.44,16.62c28.15,11.41,53.41,28.19,75.09,49.87l0.45,0.45l14.12,14.12l14.14-14.09
					c21.66-21.58,46.88-38.29,74.97-49.65c27.14-10.98,55.83-16.55,85.25-16.55h0c29.49,0,58.23,5.59,85.43,16.62
					c28.15,11.41,53.41,28.19,75.08,49.87c21.68,21.68,38.46,46.94,49.87,75.09c11.03,27.2,16.62,55.94,16.62,85.44
					c0,29.49-5.59,58.24-16.62,85.44c-11.41,28.15-28.19,53.41-49.86,75.07L448.09,829.52L112.76,494.18
					C91.08,472.5,74.3,447.24,62.89,419.1c-11.03-27.2-16.62-55.94-16.62-85.43c0-29.49,5.59-58.23,16.62-85.43
					c11.41-28.15,28.19-53.41,49.87-75.08c21.68-21.68,46.94-38.46,75.09-49.87C215.04,112.26,243.79,106.67,273.28,106.67
					 M273.28,86.67c-63.22,0-126.43,24.12-174.67,72.35c-96.46,96.46-96.46,252.84,0,349.31l349.46,349.46l349.31-348.68
					c96.46-96.46,96.46-252.87,0-349.33c-48.23-48.23-111.44-72.35-174.65-72.35c-63.07,0-126.15,24.01-174.34,72.03l-0.45-0.45
					C399.72,110.78,336.5,86.67,273.28,86.67L273.28,86.67z"/>
			</g>
		</g>
	</g>
</g>
</svg>
